<?xml version="1.0" encoding="utf-8"?>
<!-- Generator: Adobe Illustrator 19.0.0, SVG Export Plug-In . SVG Version: 6.00 Build 0)  -->
<svg version="1.1" id="Layer_1" xmlns="http://www.w3.org/2000/svg" xmlns:xlink="http://www.w3.org/1999/xlink" x="0px" y="0px"
	 viewBox="0 0 595.3 841.9" style="enable-background:new 0 0 595.3 841.9;" xml:space="preserve">
<style type="text/css">
	.st0{fill:#39405B;}
	.st1{fill:#373F55;}
	.st2{fill:#3C4A7B;}
	.st3{fill:#353841;}
	.st4{fill:#3A4771;}
	.st5{fill:#343B4B;}
	.st6{fill:#3E4B7F;}
	.st7{fill:#3F5398;}
	.st8{fill:#3D5396;}
	.st9{fill:#384265;}
	.st10{fill:#3D508B;}
	.st11{fill:#363D4E;}
	.st12{fill:#374060;}
	.st13{fill:#3E4E89;}
	.st14{fill:#333336;}
	.st15{fill:#343A46;}
	.st16{fill:#3B4874;}
	.st17{fill:#353944;}
	.st18{fill:#3F56A0;}
	.st19{fill:#4054A0;}
	.st20{fill:#353537;}
	.st21{fill:#34373D;}
	.st22{fill:#363D52;}
	.st23{fill:#3C5190;}
	.st24{fill:#343A47;}
	.st25{fill:#3E4D81;}
	.st26{fill:#39456A;}
	.st27{fill:#38415E;}
	.st28{fill:#384362;}
	.st29{fill:#3A4466;}
	.st30{fill:#415499;}
	.st31{fill:#41569D;}
	.st32{fill:#343539;}
	.st33{fill:#3B4978;}
	.st34{fill:#35343B;}
	.st35{fill:#353A4D;}
	.st36{fill:#3B4B7F;}
	.st37{fill:#394670;}
	.st38{fill:#3B476D;}
	.st39{fill:#40549C;}
	.st40{fill:#35373B;}
	.st41{fill:#3B4466;}
	.st42{fill:#3F5391;}
	.st43{fill:#36373F;}
	.st44{fill:#363D4C;}
	.st45{fill:#363B4F;}
	.st46{fill:#3E4E87;}
	.st47{fill:#3A466F;}
	.st48{fill:#3D5087;}
	.st49{fill:#3C4F8D;}
	.st50{fill:#3A4469;}
	.st51{fill:#38466D;}
	.st52{fill:#3A4778;}
	.st53{fill:#394161;}
	.st54{fill:#3A4774;}
	.st55{fill:#3E5090;}
	.st56{fill:#3F4E85;}
	.st57{fill:#3C4D84;}
	.st58{fill:#3E5194;}
	.st59{fill:#3D4C85;}
	.st60{fill:#3B5192;}
	.st61{fill:#40549A;}
	.st62{fill:#3B4876;}
	.st63{fill:#555045;}
	.st64{fill:#3D508F;}
	.st65{fill:#394672;}
	.st66{fill:#3C4D7F;}
	.st67{fill:#32384A;}
	.st68{fill:#4157A3;}
	.st69{fill:#3D5094;}
	.st70{fill:#3F539D;}
	.st71{fill:#2B2926;}
	.st72{fill:#3B4F89;}
	.st73{fill:#3E508F;}
	.st74{fill:#3B4E89;}
</style>
<g id="XMLID_1_">
	<g id="XMLID_69_">
		<path id="XMLID_164_" class="st0" d="M-12.9,571.9c0-11.7,0-23.4,0-35.1c3.1-3.8,7.2-5.5,12-5.8c5.4-0.3,10.9-0.4,16.3-0.4
			c192.6,0,385.2-0.1,577.9,0.1c9.7,0,20.4-2.8,28.3,6.1c0,13.4,0,26.7,0,40.1c-6.4,7.5-15.3,5.6-23.4,5.7
			c-40.4,0.5-80.9,0.2-121.3,0.3c-157.2,0.6-314.5,0-471.7-0.4C-3.3,582.6-10.8,582.2-12.9,571.9z"/>
		<path id="XMLID_163_" class="st1" d="M-12.9,571.9c6.8,9,16.6,3.5,24.6,4c20.4,1.2,40.9,0,61.4-0.2c19.2-0.2,38.5-0.5,57.7-0.3
			c18.5,0.2,37,1.4,55.5,1.4c93.1,0.2,186.1,0.2,279.2,0c42.2-0.1,84.4-1.2,126.6-1.6c9.8-0.1,19.7,1.1,29.5,1.7
			c0,11.7,0,23.4,0,35.1c-3.1,3.8-7.2,5.5-12,5.8c-5.4,0.3-10.9,0.4-16.3,0.4c-192.6,0-385.2,0.1-577.9-0.1
			c-9.7,0-20.4,2.8-28.3-6.1C-12.9,598.7-12.9,585.3-12.9,571.9z"/>
		<path id="XMLID_162_" class="st2" d="M-12.9,313.6c0-11.7,0-23.4,0-35.1c3.1-3.8,7.2-5.5,12-5.8c5.4-0.3,10.9-0.4,16.3-0.4
			c192.6,0,385.2-0.1,577.9,0.1c9.7,0,20.4-2.8,28.3,6.1c0,11.7,0,23.4,0,35.1c-4.4,6-11.2,5.1-17.2,5.1c-200-0.2-400-0.2-600.1,0
			C-1.7,318.7-8.4,319.6-12.9,313.6z"/>
		<path id="XMLID_161_" class="st3" d="M-12.9,782.6c0-10.9,0-21.7,0-32.6c3.1-3.8,7.2-5.5,12-5.8c5.4-0.3,10.9-0.4,16.3-0.4
			c192.6,0,385.2-0.1,577.9,0.1c9.7,0,20.4-2.8,28.3,6.1c0,10.9,0,21.7,0,32.6c-3.1,3.8-7.2,5.5-12,5.8c-5.4,0.3-10.9,0.4-16.3,0.4
			c-192.6,0-385.2,0.1-577.9-0.1C5.8,788.7-5,791.5-12.9,782.6z"/>
		<path id="XMLID_160_" class="st4" d="M621.6,363.8c0,9.2,0,18.4,0,27.6c-4.4,6-11.2,5.1-17.2,5.1c-200-0.2-400-0.2-600.1,0
			c-6,0-12.8,0.9-17.2-5.1c0-9.2,0-18.4,0-27.6c6-5.6,13.4-3.7,20.3-3.7c185.4-0.1,370.8-0.1,556.2-0.1c14.6,0,29.2,0,43.8,0
			C612.5,360.1,617.7,359.7,621.6,363.8z"/>
		<path id="XMLID_159_" class="st5" d="M621.6,672.3c0,8.4,0,16.7,0,25.1c-6,5.6-13.4,3.7-20.3,3.7c-185.4,0.1-370.8,0.1-556.2,0.1
			c-14.6,0-29.2,0-43.8,0c-5,0-10.1,0.4-14.1-3.7c0-8.4,0-16.7,0-25.1c5.7-6,13.5-3.9,20.1-3.9c198.1,0.4,396.2,0.4,594.3,0
			C608,668.3,615.8,666.3,621.6,672.3z"/>
		<path id="XMLID_158_" class="st6" d="M621.6,278.5c-211.5,0-423,0-634.5,0c0-8.4,0-16.7,0-25.1c4.5-6,11.2-5.1,17.2-5.1
			c200,0.2,400,0.2,600,0c6.1,0,12.8-0.9,17.2,5.1C621.6,261.8,621.6,270.2,621.6,278.5z"/>
		<path id="XMLID_157_" class="st7" d="M621.6,50.3c0,8.4,0,16.7,0,25.1c-3.1,3.8-7.2,5.5-12,5.8c-5.4,0.3-10.9,0.4-16.3,0.4
			c-192.6,0-385.2,0.1-577.9-0.1c-9.7,0-20.4,2.8-28.3-6.1c0-8.4,0-16.7,0-25.1c4.4-6,11.2-5.1,17.2-5.1c200,0.2,400.1,0.2,600.1,0
			C610.4,45.2,617.1,44.3,621.6,50.3z"/>
		<path id="XMLID_156_" class="st8" d="M-12.9,75.4c211.5,0,423,0,634.5,0c0,8.4,0,16.7,0,25.1c-6,5.6-13.4,3.7-20.3,3.7
			c-185.4,0.1-370.8,0.1-556.2,0.1c-14.6,0-29.2,0-43.8,0c-5,0-10.1,0.4-14.1-3.7C-12.9,92.1-12.9,83.8-12.9,75.4z"/>
		<path id="XMLID_155_" class="st9" d="M-12.9,486.7c0-8.4,0-16.7,0-25.1c3.1-3.8,7.2-5.5,12-5.8c5.4-0.3,10.9-0.4,16.3-0.4
			c192.6,0,385.2-0.1,577.9,0.1c9.7,0,20.4-2.8,28.3,6.1c0,8.4,0,16.7,0,25.1c-6,5.6-13.4,3.7-20.3,3.7
			c-185.8,0.1-371.6,0.1-557.5,0.1c-14.2,0-28.4,0-42.6,0C-3.8,490.4-9,490.8-12.9,486.7z"/>
		<path id="XMLID_154_" class="st10" d="M621.6,150.6c0,9.2,0,18.4,0,27.6c-3.1,3.8-7.1,5.7-12,5.7c-76.3,0.4-152.6,1.8-228.8-0.8
			c-2.4-0.7-4.1-2.2-5.6-4.3c-8.9-13.3-25.7-12.8-34.4,0.9c-0.9,1.4-2.2,2.3-3.7,3.1c-20.8,2.6-41.5,2.3-62.3,0.3
			c-6.6-3.1-7.5-12.2-16.7-13.5c-12.9-1.9-19.9,4.9-26.8,13.4c-5.3,1.3-10.7,1.4-16.2,1.4c-56.5,0.1-113.1,0.1-169.6,0
			c-5.4,0-10.8-0.1-16.1-1.3c-2-0.7-4.1-1.8-4.7-3.8c-2.5-8.8-7-12.3-17.1-12.6c-10.1-0.3-12.6,6.1-16.8,11.8
			c-1.3,0.7-2.5,0.6-3.6-0.3c0-8.4,0-16.7,0-25.1c2.5-5.4,7.1-6.2,12.3-6.1c9.5,0.1,19-0.2,28.5-0.2c68.1,0.1,136.2,0.1,204.3,0
			c13.5,0.2,27.1,0.2,40.6,0c21.9,0.1,43.8,0.2,65.7,0c13.7,0.2,27.3,0.2,41,0c76,0.2,151.9-0.1,227.9,0.2
			C612.5,147,617.7,146.3,621.6,150.6z"/>
		<path id="XMLID_153_" class="st11" d="M621.6,627.1c0,6.7,0,13.4,0,20.1c-4.4,4.5-9.9,3.4-15.4,3.4c-149,0.7-298.1,0.2-447.1,0.3
			c-52.6,0-105.1-0.2-157.7,0.2c-4.9,0-10.4,0.6-14.3-3.9c0-6.7,0-13.4,0-20.1c3.1-3.8,7.2-5.5,12-5.8c5.4-0.3,10.9-0.4,16.3-0.4
			c192.6,0,385.2-0.1,577.9,0.1C602.9,621.1,613.6,618.2,621.6,627.1z"/>
		<path id="XMLID_152_" class="st12" d="M-12.9,524.3c0-6.7,0-13.4,0-20.1c3.1-3.8,7.2-5.5,12-5.8c5.4-0.3,10.9-0.4,16.3-0.4
			c192.6,0,385.2-0.1,577.9,0.1c9.7,0,20.4-2.8,28.3,6.1c0,6.7,0,13.4,0,20.1c-3.1,3.8-7.2,5.5-12,5.8c-5.4,0.3-10.9,0.4-16.3,0.4
			c-192.6,0-385.2,0.1-577.9-0.1C5.8,530.4-5,533.2-12.9,524.3z"/>
		<path id="XMLID_151_" class="st13" d="M27.2,178.2c68.5,0,137.1,0,205.6,0c11.1-8.4,29-8.4,40.1,0c21.7,0,43.5,0,65.2,0
			c11.1-8.4,29-8.4,40.1,0c81.1,0,162.2,0,243.2,0c0,6.7,0,13.4,0,20.1c-5.7,6-13.5,3.9-20,3.9c-198.1-0.4-396.2-0.4-594.4,0
			c-6.5,0-14.3,2.1-20-3.9c0-6.7,0-13.4,0-20.1c0.8,0,1.7,0,2.5,0C2.2,172.4,14.7,172.4,27.2,178.2z"/>
		<path id="XMLID_150_" class="st14" d="M-12.9,867.9c0-6.7,0-13.4,0-20.1c3.1-3.8,7.2-5.5,12-5.8c5.4-0.3,10.9-0.4,16.3-0.4
			c192.6,0,385.2-0.1,577.9,0.1c9.7,0,20.4-2.8,28.3,6.1c0,6.7,0,13.4,0,20.1c-6,5.6-13.4,3.7-20.3,3.7
			c-185.4,0.1-370.8,0.1-556.2,0.1c-14.6,0-29.2,0-43.8,0C-3.8,871.6-9,872-12.9,867.9z"/>
		<path id="XMLID_133_" class="st15" d="M-12.9,732.4c0-6.7,0-13.4,0-20.1c3.1-3.8,7.2-5.5,12-5.8c5.4-0.3,10.9-0.4,16.3-0.4
			c192.6,0,385.2-0.1,577.9,0.1c9.7,0,20.4-2.8,28.3,6.1c0,6.7,0,13.4,0,20.1c-3.1,3.8-7.2,5.5-12,5.8c-5.4,0.3-10.9,0.4-16.3,0.4
			c-192.6,0-385.2,0.1-577.9-0.1C5.8,738.5-5,741.3-12.9,732.4z"/>
		<path id="XMLID_132_" class="st16" d="M-12.9,356.3c0-5.9,0-11.7,0-17.6c4.3-4.4,10-3.7,15.3-3.7c201.3-0.1,402.5-0.1,603.8,0
			c5.4,0,11-0.7,15.3,3.7c0,5.9,0,11.7,0,17.6c-4.3,4.4-10,3.7-15.3,3.7c-201.3,0.1-402.5,0.1-603.8,0
			C-2.9,360-8.5,360.7-12.9,356.3z"/>
		<path id="XMLID_131_" class="st17" d="M-12.9,732.4c211.5,0,423,0,634.5,0c0,5.9,0,11.7,0,17.6c-211.5,0-423,0-634.5,0
			C-12.9,744.1-12.9,738.3-12.9,732.4z"/>
		<path id="XMLID_130_" class="st18" d="M-12.9,0.2c0-5,0-10,0-15c4.3-2.4,9-1.2,13.5-1.2c202.5-0.1,405-0.1,607.4,0
			c4.5,0,9.2-1.2,13.5,1.2c0,5,0,10,0,15c-3.1,3.8-7.2,5.5-12,5.8c-5.4,0.3-10.9,0.4-16.3,0.4C400.7,6.4,208,6.4,15.4,6.2
			C5.8,6.2-5,9.1-12.9,0.2z"/>
		<path id="XMLID_129_" class="st19" d="M-12.9,0.2c211.5,0,423,0,634.5,0c0,5,0,10,0,15c-5,5.9-11.7,4.8-18.4,4.8
			C409.9,20.7,216.6,20,23.3,20.2c-7.8,0-15.7,0.4-23.6-0.3c-5-0.4-9.1-1-12.5-4.7C-12.9,10.2-12.9,5.2-12.9,0.2z"/>
		<path id="XMLID_128_" class="st20" d="M621.6,847.8c-211.5,0-423,0-634.5,0c0-5,0-10,0-15c5-5.9,11.8-4.8,18.4-4.8
			c192.5-0.6,385.1,0.1,577.6-0.2c8.6,0,17.2-0.3,25.9,0.4c5,0.4,9.1,1,12.5,4.7C621.6,837.8,621.6,842.8,621.6,847.8z"/>
		<path id="XMLID_127_" class="st21" d="M-12.9,782.6c211.5,0,423,0,634.5,0c0,5,0,10,0,15c-4.4,4.5-9.9,3.4-15.4,3.4
			c-149,0.7-298.1,0.2-447.1,0.3c-52.6,0-105.1-0.2-157.7,0.2c-4.9,0-10.4,0.6-14.3-3.9C-12.9,792.6-12.9,787.6-12.9,782.6z"/>
		<path id="XMLID_126_" class="st22" d="M621.6,627.1c-211.5,0-423,0-634.5,0c0-5,0-10,0-15c211.5,0,423,0,634.5,0
			C621.6,617.1,621.6,622.1,621.6,627.1z"/>
		<path id="XMLID_125_" class="st23" d="M621.6,125.6c0,4.2,0,8.4,0,12.5c-5.1,5.1-11.7,3.7-17.8,3.7c-59.3,0.1-118.6,0.1-178,0
			c-39.6-0.1-79.2,0.4-118.8,0.6c-82.2,0.3-164.4-1.6-246.6-0.7c-18,0.2-35.8,1.6-53.7,2.4c-7,0.3-14.4,0.6-19.5-6
			c0-4.2,0-8.4,0-12.5c5.7-6,13.5-3.9,20.1-3.9c198.1,0.4,396.2,0.3,594.3,0C608.1,121.6,615.8,119.6,621.6,125.6z"/>
		<path id="XMLID_124_" class="st24" d="M621.6,712.4c-211.5,0-423,0-634.5,0c0-4.2,0-8.4,0-12.5c4.3-2.4,9-1.2,13.5-1.2
			c202.5-0.1,405-0.1,607.4,0c4.5,0,9.2-1.2,13.5,1.2C621.6,704,621.6,708.2,621.6,712.4z"/>
		<path id="XMLID_123_" class="st25" d="M621.6,230.9c0,4.2,0,8.4,0,12.5c-4.4,6-11.2,5.1-17.2,5.1c-200-0.2-400-0.2-600.1,0
			c-6,0-12.8,0.9-17.2-5.1c0-4.2,0-8.4,0-12.5c6-5.6,13.4-3.7,20.3-3.7c185.8-0.1,371.7-0.1,557.5-0.1c14.2,0,28.4,0,42.6,0
			C612.5,227.2,617.7,226.8,621.6,230.9z"/>
		<path id="XMLID_122_" class="st26" d="M621.6,424c0,4.2,0,8.4,0,12.5c-5.7,6-13.5,3.9-20,3.9c-198.1-0.4-396.2-0.4-594.4,0
			c-6.5,0-14.3,2.1-20-3.9c0-4.2,0-8.4,0-12.5c4.4-6,11.1-5.1,17.2-5.1c195.6,0.2,391.1-0.1,586.7,0.2
			C601.2,419.2,612.6,415.2,621.6,424z"/>
		<path id="XMLID_121_" class="st27" d="M-12.9,524.3c211.5,0,423,0,634.5,0c0,4.2,0,8.4,0,12.5c-211.5,0-423,0-634.5,0
			C-12.9,532.7-12.9,528.5-12.9,524.3z"/>
		<path id="XMLID_120_" class="st28" d="M621.6,504.2c-211.5,0-423,0-634.5,0c0-4.2,0-8.4,0-12.5c4.4-3.5,9.6-2.5,14.5-2.5
			c201.8-0.1,403.7-0.1,605.5,0c4.9,0,10.1-1,14.5,2.5C621.6,495.9,621.6,500.1,621.6,504.2z"/>
		<path id="XMLID_119_" class="st29" d="M621.6,461.6c-211.5,0-423,0-634.5,0c0-4.2,0-8.4,0-12.5c6-5.6,13.4-3.7,20.3-3.7
			c182.5-0.1,365-0.1,547.5-0.1c17.5,0,35.1,0,52.6,0c5,0,10.1-0.4,14.1,3.7C621.6,453.2,621.6,457.4,621.6,461.6z"/>
		<path id="XMLID_118_" class="st30" d="M621.6,50.3c-211.5,0-423,0-634.5,0c0-3.3,0-6.7,0-10c5.7-6,13.5-3.9,20-3.9
			c198.1,0.4,396.3,0.3,594.4,0c6.5,0,14.3-2.1,20,3.9C621.6,43.6,621.6,47,621.6,50.3z"/>
		<path id="XMLID_117_" class="st31" d="M-12.9,15.2c211.5,0,423,0,634.5,0c0,3.3,0,6.7,0,10c-6,5.6-13.4,3.7-20.3,3.7
			C418.8,29,236.3,29,53.8,29c-17.5,0-35.1,0-52.6,0c-5,0-10.1,0.4-14.1-3.7C-12.9,21.9-12.9,18.6-12.9,15.2z"/>
		<path id="XMLID_116_" class="st32" d="M621.6,832.8c-211.5,0-423,0-634.5,0c0-3.3,0-6.7,0-10c5.7-6,13.5-3.9,20.1-3.9
			c198.1,0.4,396.2,0.4,594.3,0c6.6,0,14.4-2.1,20.1,3.9C621.6,826.1,621.6,829.4,621.6,832.8z"/>
		<path id="XMLID_115_" class="st33" d="M-12.9,313.6c211.5,0,423,0,634.5,0c0,3.3,0,6.7,0,10c-6,5.6-13.4,3.7-20.3,3.7
			c-182.5,0.1-365,0.1-547.5,0.1c-17.5,0-35.1,0-52.6,0c-5,0-10.1,0.4-14.1-3.7C-12.9,320.3-12.9,317-12.9,313.6z"/>
		<path id="XMLID_114_" class="st34" d="M621.6,805.2c0,3.3,0,6.7,0,10c-11.4,8.2-24.8,4.1-36.7,4c-190.4-0.9-380.7,0-571.1-0.3
			c-8.9,0-18.6,3-26.7-3.7c0-3.3,0-6.7,0-10c3.9-4.5,9.4-3.8,14.4-3.8c166.5,0.2,333-0.1,499.5,0.1c35.4,0,70.8,0.1,106.2,0
			C612.2,801.4,617.6,800.7,621.6,805.2z"/>
		<path id="XMLID_113_" class="st35" d="M-12.9,664.7c0-3.3,0-6.7,0-10c3.9-4.5,9.4-3.8,14.4-3.8c166.5,0.2,333-0.1,499.5,0.1
			c35.4,0,70.8,0.1,106.2,0c5,0,10.4-0.7,14.4,3.8c0,3.3,0,6.7,0,10c-11.4,8.2-24.8,4.1-36.7,4c-190.4-0.9-380.7,0-571.1-0.3
			C4.9,668.4-4.8,671.4-12.9,664.7z"/>
		<path id="XMLID_112_" class="st36" d="M-12.9,243.4c211.5,0,423,0,634.5,0c0,3.3,0,6.7,0,10c-211.5,0-423,0-634.5,0
			C-12.9,250.1-12.9,246.8-12.9,243.4z"/>
		<path id="XMLID_111_" class="st37" d="M-12.9,391.4c211.5,0,423,0,634.5,0c0,3.3,0,6.7,0,10c-6,5.6-13.4,3.7-20.3,3.7
			c-182.5,0.1-365,0.1-547.5,0.1c-17.5,0-35.1,0-52.6,0c-5,0-10.1,0.4-14.1-3.7C-12.9,398.1-12.9,394.7-12.9,391.4z"/>
		<path id="XMLID_110_" class="st38" d="M621.6,424c-211.5,0-423,0-634.5,0c0-3.3,0-6.7,0-10c5.7-6,13.5-3.9,20-3.9
			c198.1,0.4,396.2,0.4,594.4,0c6.5,0,14.3-2.1,20.1,3.9C621.6,417.3,621.6,420.6,621.6,424z"/>
		<path id="XMLID_109_" class="st39" d="M621.6,40.3c-211.5,0-423,0-634.5,0c0-2.5,0-5,0-7.5c6-5.6,13.4-3.7,20.3-3.7
			C190.3,29,373.2,29,556.2,29c17.1,0,34.2,0,51.4,0c5,0,10.1-0.4,14.1,3.7C621.6,35.3,621.6,37.8,621.6,40.3z"/>
		<path id="XMLID_108_" class="st40" d="M-12.9,815.2c211.5,0,423,0,634.5,0c0,2.5,0,5,0,7.5c-211.5,0-423,0-634.5,0
			C-12.9,820.2-12.9,817.7-12.9,815.2z"/>
		<path id="XMLID_107_" class="st41" d="M-12.9,436.5c211.5,0,423,0,634.5,0c0,2.5,0,5,0,7.5c-4.4,3.5-9.6,2.5-14.5,2.5
			c-201.8,0.1-403.7,0.1-605.5,0c-4.9,0-10.1,1-14.5-2.5C-12.9,441.5-12.9,439-12.9,436.5z"/>
		<path id="XMLID_106_" class="st42" d="M621.6,125.6c-211.5,0-423,0-634.5,0c0-2.5,0-5,0-7.5c6-5.6,13.4-3.7,20.3-3.7
			c182.9-0.1,365.8-0.1,548.7-0.1c17.1,0,34.2,0,51.4,0c5,0,10.1-0.4,14.1,3.7C621.6,120.5,621.6,123.1,621.6,125.6z"/>
		<path id="XMLID_105_" class="st43" d="M621.6,805.2c-211.5,0-423,0-634.5,0c0-2.5,0-5,0-7.5c211.5,0,423,0,634.5,0
			C621.6,800.2,621.6,802.7,621.6,805.2z"/>
		<path id="XMLID_104_" class="st44" d="M-12.9,664.7c211.5,0,423,0,634.5,0c0,2.5,0,5,0,7.5c-211.5,0-423,0-634.5,0
			C-12.9,669.8-12.9,667.2-12.9,664.7z"/>
		<path id="XMLID_103_" class="st45" d="M621.6,654.7c-211.5,0-423,0-634.5,0c0-2.5,0-5,0-7.5c211.5,0,423,0,634.5,0
			C621.6,649.7,621.6,652.2,621.6,654.7z"/>
		<path id="XMLID_102_" class="st46" d="M-12.9,198.3c211.5,0,423,0,634.5,0c0,2.5,0,5,0,7.5c-5.7,6-13.5,3.9-20,3.9
			c-198.1-0.4-396.2-0.4-594.4,0c-6.5,0-14.3,2.1-20-3.9C-12.9,203.3-12.9,200.8-12.9,198.3z"/>
		<path id="XMLID_101_" class="st47" d="M621.6,414c-211.5,0-423,0-634.5,0c0-2.5,0-5,0-7.5c4.4-3.5,9.6-2.5,14.5-2.5
			c201.8-0.1,403.7-0.1,605.5,0c4.9,0,10.1-1,14.5,2.5C621.6,408.9,621.6,411.5,621.6,414z"/>
		<path id="XMLID_100_" class="st48" d="M-12.9,205.8c211.5,0,423,0,634.5,0c0,2.5,0,5,0,7.5c-6,5.6-13.4,3.7-20.3,3.7
			c-182.5,0.1-365,0.1-547.5,0.1c-17.5,0-35.1,0-52.6,0c-5,0-10.1,0.4-14.1-3.7C-12.9,210.8-12.9,208.3-12.9,205.8z"/>
		<path id="XMLID_99_" class="st49" d="M-12.9,138.1c211.5,0,423,0,634.5,0c0,1.7,0,3.3,0,5c-6.3,5.7-14,3.3-21.1,3.4
			c-70,1-140-0.2-210,0.6c-4.5,0.1-8.6,0.5-12.1,3.5c-13.4,3.8-26.7,3.8-40.1,0c-2.7-2.8-6.2-4.2-9.8-4c-15.2,0.7-30.4,0.1-45.6,0
			c-3.6,0-7.1,1.3-9.8,4c-13.4,3.8-26.7,3.8-40.1,0c-3.5-2.9-7.4-3.5-12.1-3.5c-60.5-0.4-121-0.5-181.4,0c-4.7,0-8.6,0.6-12.1,3.5
			c-13.1,5.2-26.8,0.7-40.1,2.5C-12.9,148.1-12.9,143.1-12.9,138.1z"/>
		<path id="XMLID_98_" class="st50" d="M-12.9,444.1c211.5,0,423,0,634.5,0c0,1.7,0,3.3,0,5c-211.5,0-423,0-634.5,0
			C-12.9,447.4-12.9,445.7-12.9,444.1z"/>
		<path id="XMLID_97_" class="st51" d="M621.6,406.4c-211.5,0-423,0-634.5,0c0-1.7,0-3.3,0-5c211.5,0,423,0,634.5,0
			C621.6,403.1,621.6,404.8,621.6,406.4z"/>
		<path id="XMLID_96_" class="st52" d="M-12.9,323.7c211.5,0,423,0,634.5,0c0,1.7,0,3.3,0,5c-6,5.6-13.4,3.7-20.3,3.7
			c-182.5,0.1-365,0.1-547.5,0.1c-17.5,0-35.1,0-52.6,0c-5,0-10.1,0.4-14.1-3.7C-12.9,327-12.9,325.4-12.9,323.7z"/>
		<path id="XMLID_95_" class="st53" d="M621.6,491.7c-211.5,0-423,0-634.5,0c0-1.7,0-3.3,0-5c211.5,0,423,0,634.5,0
			C621.6,488.4,621.6,490,621.6,491.7z"/>
		<path id="XMLID_94_" class="st16" d="M-12.9,328.7c211.5,0,423,0,634.5,0c0,1.7,0,3.3,0,5c-4.4,3.5-9.6,2.5-14.5,2.5
			c-201.8,0.1-403.7,0.1-605.5,0c-4.9,0-10.1,1-14.5-2.5C-12.9,332-12.9,330.4-12.9,328.7z"/>
		<path id="XMLID_93_" class="st54" d="M621.6,363.8c-211.5,0-423,0-634.5,0c0-1.7,0-3.3,0-5c4.3-2.4,9-1.2,13.5-1.2
			c202.5-0.1,405-0.1,607.4,0c4.5,0,9.2-1.2,13.5,1.2C621.6,360.5,621.6,362.1,621.6,363.8z"/>
		<path id="XMLID_92_" class="st55" d="M621.6,118c-211.5,0-423,0-634.5,0c0-1.7,0-3.3,0-5c6-5.6,13.4-3.7,20.3-3.7
			c182.9-0.1,365.8-0.1,548.7-0.1c17.1,0,34.2,0,51.4,0c5,0,10.1-0.4,14.1,3.7C621.6,114.7,621.6,116.4,621.6,118z"/>
		<path id="XMLID_91_" class="st56" d="M621.6,218.4c0,1.7,0,3.3,0,5c-4.3,4.4-10,3.7-15.3,3.7c-201.3,0.1-402.5,0.1-603.8,0
			c-5.4,0-11,0.7-15.3-3.7c0-1.7,0-3.3,0-5c4.4-3.5,9.6-2.5,14.5-2.5c201.8-0.1,403.7-0.1,605.5,0
			C612,215.9,617.2,214.9,621.6,218.4z"/>
		<path id="XMLID_90_" class="st57" d="M621.6,218.4c-211.5,0-423,0-634.5,0c0-1.7,0-3.3,0-5c211.5,0,423,0,634.5,0
			C621.6,215,621.6,216.7,621.6,218.4z"/>
		<path id="XMLID_89_" class="st58" d="M621.6,113c-211.5,0-423,0-634.5,0c0-1.7,0-3.3,0-5c6-5.6,13.4-3.7,20.3-3.7
			c182.9-0.1,365.8-0.1,548.7-0.1c17.1,0,34.2,0,51.4,0c5,0,10.1-0.4,14.1,3.7C621.6,109.7,621.6,111.4,621.6,113z"/>
		<path id="XMLID_88_" class="st59" d="M-12.9,223.4c211.5,0,423,0,634.5,0c0,1.7,0,3.3,0,5c-4.3,2.4-9,1.2-13.5,1.2
			c-202.5,0.1-405,0.1-607.4,0c-4.5,0-9.2,1.2-13.5-1.2C-12.9,226.7-12.9,225-12.9,223.4z"/>
		<path id="XMLID_87_" class="st60" d="M621.6,108c-211.5,0-423,0-634.5,0c0-1.7,0-3.3,0-5c4.3-2.4,9-1.2,13.5-1.2
			c202.5-0.1,405-0.1,607.4,0c4.5,0,9.2-1.2,13.5,1.2C621.6,104.7,621.6,106.3,621.6,108z"/>
		<path id="XMLID_86_" class="st61" d="M621.6,32.8c-211.5,0-423,0-634.5,0c0-1.7,0-3.3,0-5c4.3-2.4,9-1.2,13.5-1.2
			c202.5-0.1,405-0.1,607.4,0c4.5,0,9.2-1.2,13.5,1.2C621.6,29.4,621.6,31.1,621.6,32.8z"/>
		<path id="XMLID_85_" class="st62" d="M-12.9,333.7c211.5,0,423,0,634.5,0c0,1.7,0,3.3,0,5c-211.5,0-423,0-634.5,0
			C-12.9,337.1-12.9,335.4-12.9,333.7z"/>
		<path id="XMLID_84_" class="st63" d="M621.6,870.4c-0.9,1.6,1.8,4.4-1.3,4.9c-2.8,0.5-5.8,0.1-8.8,0.1c-204.8,0-409.6,0-614.4-0.3
			c-3.1,0-10.8,5.2-10-4.8c4.3-2.4,9-1.2,13.5-1.2c202.5-0.1,405-0.1,607.4,0C612.6,869.2,617.3,868,621.6,870.4z"/>
		<path id="XMLID_83_" class="st64" d="M378.3,150.6c1.9-9.7,9.8-7.4,16-7.4c65.3-0.1,130.7-0.1,196-0.1c10.4,0,20.8,0,31.2,0
			c0,2.5,0,5,0,7.5C540.5,150.6,459.4,150.6,378.3,150.6z"/>
		<path id="XMLID_82_" class="st65" d="M621.6,358.8c-211.5,0-423,0-634.5,0c0-0.8,0-1.7,0-2.5c211.5,0,423,0,634.5,0
			C621.6,357.1,621.6,358,621.6,358.8z"/>
		<path id="XMLID_81_" class="st66" d="M-12.9,228.4c211.5,0,423,0,634.5,0c0,0.8,0,1.7,0,2.5c-211.5,0-423,0-634.5,0
			C-12.9,230.1-12.9,229.2-12.9,228.4z"/>
		<path id="XMLID_80_" class="st67" d="M621.6,699.8c-211.5,0-423,0-634.5,0c0-0.8,0-1.7,0-2.5c211.5,0,423,0,634.5,0
			C621.6,698.2,621.6,699,621.6,699.8z"/>
		<path id="XMLID_79_" class="st68" d="M621.6-14.9c-211.5,0-423,0-634.5,0c-0.4-4.9,3.4-2.4,5-2.4c208.1-0.1,416.3-0.1,624.4,0
			C618.1-17.3,622-19.8,621.6-14.9z"/>
		<path id="XMLID_78_" class="st69" d="M621.6,103c-211.5,0-423,0-634.5,0c0-0.8,0-1.7,0-2.5c211.5,0,423,0,634.5,0
			C621.6,101.3,621.6,102.2,621.6,103z"/>
		<path id="XMLID_77_" class="st70" d="M621.6,27.8c-211.5,0-423,0-634.5,0c0-0.8,0-1.7,0-2.5c211.5,0,423,0,634.5,0
			C621.6,26.1,621.6,26.9,621.6,27.8z"/>
		<path id="XMLID_76_" class="st71" d="M621.6,870.4c-211.5,0-423,0-634.5,0c0-0.8,0-1.7,0-2.5c211.5,0,423,0,634.5,0
			C621.6,868.7,621.6,869.5,621.6,870.4z"/>
		<path id="XMLID_75_" class="st64" d="M27.2,150.6c0.9-6.5,5.7-7.5,11-7.5c61.2,0,122.4,0,183.6,0c5.4,0,10.1,0.9,11,7.5
			C164.3,150.6,95.8,150.6,27.2,150.6z"/>
		<path id="XMLID_74_" class="st72" d="M378.3,178.2c-13.4,0-26.8,0-40.1,0c0.8-15,0.8-15,20.1-15
			C377.5,163.2,377.5,163.2,378.3,178.2z"/>
		<path id="XMLID_73_" class="st72" d="M273,178.2c-13.4,0-26.8,0-40.1,0c0.8-15,0.8-15,20.1-15S272.2,163.2,273,178.2z"/>
		<path id="XMLID_72_" class="st73" d="M273,150.6c0.9-6.5,5.6-7.5,10.9-7.5c14.5,0,28.9,0,43.4,0c5.4,0,10,1,10.9,7.5
			C316.5,150.6,294.7,150.6,273,150.6z"/>
		<path id="XMLID_71_" class="st74" d="M27.2,178.2c-12.5,0-25.1,0-37.6,0c-2.1-15.5,8-15.2,18.8-15.2
			C19.2,163,29.3,162.7,27.2,178.2z"/>
		<path id="XMLID_70_" class="st10" d="M20.8,172.8c-8.2,3.7-16.4,3.4-27.4,1.2C4.1,168.7,12.5,171.4,20.8,172.8z"/>
	</g>
</g>
</svg>
